<svg width="108" height="2458" viewBox="0 0 108 2458" fill="none" xmlns="http://www.w3.org/2000/svg">
<path d="M47.9491 0C70.2721 3.105 74.1991 7.67701 83.2201 26.724C98.7151 59.448 73.401 83.691 74.34 111.942C77.307 201.087 87.5611 291.45 89.2351 380.526L103.665 1941.12C103.947 2034.38 104.739 2127.64 106.041 2220.89C106.902 2280.11 107.238 2340.4 107.7 2399.66C107.763 2408.01 104.679 2421.36 100.431 2428.66C88.7401 2448.77 78.7891 2451.47 58.0801 2457.34C40.4041 2456.09 23.1901 2451.37 12.1531 2436.96C3.29408 2425.39 -0.0149493 2398.24 5.07411e-05 2383.97C0.0990507 2296.6 2.07908 2209.22 2.77208 2121.85L7.71607 1569.83C12.1621 1177.4 13.7701 784.506 18.2401 392.061C21.7801 303.087 27.7021 214.008 33.1081 125.136C36.2131 74.106 -6.86394 38.793 47.9491 0Z" fill="#C70003"/>
</svg>
