<svg width="1319" height="1319" viewBox="0 0 1319 1319" fill="none" xmlns="http://www.w3.org/2000/svg">
<path d="M620.605 1.14067C984.037 -20.0828 1295.84 257.406 1316.92 620.845C1338 984.283 1060.41 1295.97 696.963 1316.93C333.703 1337.87 22.2072 1060.46 1.12651 697.203C-19.9541 333.952 257.359 22.3549 620.605 1.14067ZM1049.91 166.497C916.178 60.1011 745.201 12.1031 575.631 33.3545C410.285 54.1985 259.846 139.455 157.005 270.598C47.2672 410.245 7.90249 572.34 28.9478 746.709C30.1166 763.775 31.6672 770.512 35.607 787.243C37.1156 799.618 47.8928 848.876 54.1958 856.802C56.5803 850.199 41.3201 796.577 37.898 787.781C36.0218 772.788 34.3071 757.456 31.7681 742.587C7.82528 599.949 58.014 422.469 141.109 305.648C237.986 168.026 385.979 74.9748 551.986 47.3077C716.606 20.4207 885.162 60.0381 1020.57 157.444C1155.74 255.427 1246.44 403.136 1272.65 568.03C1286.75 656.639 1280.64 791.546 1244.42 874.153C1237.19 893.313 1230.04 913.059 1221.96 931.823C1215.36 941.635 1210.39 952.354 1205.05 962.952C1170.34 1027.29 1124.85 1085.18 1070.56 1134.11C1055.81 1147.53 1026.48 1165.64 1016.31 1177.43L1017.66 1179.39C1070.25 1158.13 1184.67 1020.49 1209.59 967.491L1228.31 930.254C1235.36 914.167 1242.18 897.97 1248.71 881.67C1281.5 781.137 1296.33 700.145 1284.81 592.856C1266.54 425.088 1181.96 271.584 1049.91 166.497ZM1021.09 238.883C908.463 141.676 761.468 93.8605 613.206 106.209C459.116 118.333 330.052 191.457 230.727 307.763C155.17 401.827 120.161 497.143 107.485 615.986C104.452 634.219 104.219 673.306 107.545 691.663L107.592 705.904C109.904 727.388 115.927 766.117 122.532 787.018L123.811 784.666C122.823 774.449 112.947 707.848 111.352 702.869C96.7151 563.789 150.885 417.663 237.611 309.763C329.616 199.109 461.552 129.205 604.778 115.229C749.529 101.161 893.959 144.994 1006.47 237.145C1120.07 331.007 1191.39 466.427 1204.51 613.204C1208.94 662.54 1205.26 761.016 1187.09 806.744C1181.7 824.192 1176.01 841.549 1170.03 858.807C1166.17 866.731 1163.62 872.395 1160.41 880.6C1135.2 932.718 1104.45 986.834 1064.42 1028.95C1059.59 1034.04 1040.8 1050.29 1042.28 1055.2C1055.46 1046.31 1059.59 1037.16 1070.04 1027C1109.77 988.368 1141.41 933.617 1164.81 883.239L1173.99 860.076C1179.4 845.725 1187.51 826.572 1189.1 811.865C1209.06 756.69 1215.17 672.845 1211.05 614.918C1200.18 469.317 1131.85 334.017 1021.09 238.883ZM1022.19 182.899C888.006 79.45 732.547 45.3142 566.543 66.7579C494.756 79.2797 417.765 103.827 355.42 142.552L335.83 154.633C292.582 183.003 233.083 231.893 201.275 273.775C97.6006 404.342 47.5597 553.93 67.2232 721.455C75.276 795.965 97.9401 868.159 133.918 933.902C141.71 952.285 160.65 978.921 173.067 994.331C163.056 973.187 148.009 947.855 136.41 927.079C106.518 865.796 86.9857 799.982 78.605 732.312C58.2178 560.128 110.045 415.215 215.525 281.611C218.821 279.489 232.156 264.756 235.529 261.184C269.016 225.731 303.176 197.401 344.128 170.532L365.108 157.699C455.6 105.159 540.279 84.4843 643.321 78.6895C803.587 76.6353 950.263 131.461 1065.75 244.001C1178.39 353.629 1242.41 503.824 1243.46 660.998C1243.96 707.413 1234.09 800.156 1215.38 842.814C1211.3 856.225 1207.81 867.501 1202.8 880.63C1197.74 890.137 1194.74 898.38 1190.86 908.357C1168.93 952.022 1150.24 987.15 1119.14 1025.79C1145.09 1006.36 1182.03 941.549 1195.35 911.305C1200.48 901.884 1204.39 892.309 1208.68 882.487L1217.84 857.495C1250.61 768.957 1261.66 673.845 1250.07 580.151C1230.56 422.499 1148.44 279.327 1022.19 182.899ZM861.966 179.754C730.527 123.984 590.687 125.69 459.013 179.005C452.661 181.743 445.833 184.21 440.163 187.939C417.691 196.839 387.189 214.633 367.464 228.902C248.954 313.916 175.891 423.331 149.583 568.665C133.158 659.4 145.498 777.229 186.293 860.907C193.498 877.153 199.56 888.954 208.112 904.582C212.262 914.413 221.072 924.784 227.694 933.53C222.197 920.887 219.683 915.105 212.086 903.162C203.959 887.373 197.773 873.32 190.715 856.989C153.304 759.058 141.717 658.593 164.559 555.814C173.268 516.615 188.329 465.958 209.644 431.721C227.328 422.321 229.307 402.635 241.88 392.289L240.661 387.814L242.822 385.61C243.541 411.003 219.901 432.222 227.637 462.154C212.705 493.934 206.761 514.575 197.471 548.395C186.933 602.312 177.892 687.213 193.124 740.835C194.32 736.858 189.768 681.885 189.442 671.829C190.264 664.859 189.68 651.025 189.598 643.469C190.931 612.405 196.186 580.951 201.596 550.342C247.711 404.192 307.842 319.633 444.278 243.394C556.302 185.422 687.044 175.337 806.634 215.446C925.119 254.572 1023 339.517 1078.43 451.314C1106.63 508.054 1120.31 560.931 1126.37 623.644C1129.91 680.934 1124.05 761.002 1101.99 814.606L1094.92 834.187C1092.71 839.295 1090.02 845.193 1088.08 850.307L1077.3 872.867C1059.45 904.305 1045.54 928.084 1022.37 956.632C1016.78 963.521 984.713 996.952 983.673 998.897L985.775 1000.44C1029.75 956.229 1054.26 929.925 1082.55 871.884C1086.34 865.339 1088.59 859.675 1091.66 852.789L1098.43 836.384C1101.43 830.24 1103.11 823.789 1105.22 817.224C1122.93 771.366 1142.16 673.564 1132.25 625.99C1131.74 589.957 1121.36 542.083 1110 508.124C1069.76 387.616 983.036 288.178 869.122 231.919C741.608 169.158 619.9 170.28 487.926 214.741C471.99 214.84 443.342 228.143 433.614 222.101C447.244 201.931 467.376 212.485 480.794 189.512C609.388 142.87 746.316 145.824 870.949 203.934C993.413 260.945 1088.1 364.434 1134.01 491.475C1177.93 613.231 1174.04 747.105 1123.16 866.119C1118.01 875.622 1114.87 883.883 1110.82 893.833C1092.43 925.498 1072.5 956.237 1051.07 985.935L1054.86 986.667C1057.17 982.584 1073.2 961.477 1077.16 956.204C1093.3 934.726 1103.32 918.976 1115.53 895.106C1121.38 884.839 1124.57 879.665 1128.43 868.34C1130.96 862.915 1133.42 857.455 1135.79 851.96C1188.33 727.268 1189.52 586.886 1139.11 461.323C1087.42 334.622 987.831 233.437 861.966 179.754ZM892.817 284.412C790.251 219.713 673.768 203.324 556.326 229.532C537.672 234.027 511.841 241.553 494.341 249.381C394.106 282.911 278.336 400.016 249.045 502.036C209.51 613.723 209.897 729.632 261.622 837.731L263.327 841.242L273.148 860.924C282.73 878.325 289.113 887.677 301.508 902.886C294.301 887.577 286.344 873.498 278.163 858.706L264.828 828.9C264.746 828.751 264.666 828.6 264.586 828.45C222.866 727.1 221.079 613.707 259.586 511.092C263.543 501.224 267.735 491.454 272.162 481.79C321.877 374.401 409.816 300.002 519.831 259.591C536.184 252.901 555.651 248.836 573.017 244.652C688.574 223.003 801.495 243.425 899.145 310.278C994.214 375.324 1059.13 475.878 1079.25 589.299C1092.29 661.739 1085.87 756.271 1055.51 823.806C1050.35 835.871 1045.33 848.129 1039.5 859.868L1026.86 882.196C1019.69 893.238 1010.38 906.296 1005.43 918.197C995.893 921.484 991.316 932.455 987.259 941.312C995.624 936.032 1001.05 929.708 1005.86 920.939L1005.43 918.197C1016.26 909.055 1023.7 895.895 1031.58 883.928L1045.17 859.739C1050.42 849.525 1055.35 839.148 1059.95 828.624C1097.75 747.48 1106.14 644.733 1086.55 557.846C1060.91 444.564 991.188 346.164 892.817 284.412ZM739.968 269.888C629.604 246.87 527.068 270.947 433.834 332.261C357.871 372.499 266.168 520.578 267.194 606.418C260.167 665.439 265.997 676.41 269.92 730.304C273.153 745.493 275.499 758.843 281.238 773.32C284.768 785.845 286.581 793.447 292.137 805.356L293.554 805.576L294.971 802.84C291.673 792.862 288.141 782.964 284.377 773.154C280.013 755.006 276.622 739.406 273.34 721.05C265.107 691.092 267.721 646.525 270.642 615.757C289.209 487.364 339.969 412.985 441.411 336.46C521.716 279.282 627.932 259.535 724.464 275.9C827.279 293.397 918.792 351.38 978.523 436.876C1038.76 523.456 1061.89 630.53 1042.75 734.256C1040.37 747.284 1033.07 777.18 1027.87 789.069C1023.1 801.401 1018.21 813.689 1013.21 825.928C1009.53 832.758 1006.81 837.801 1003.78 844.926C998.079 854.072 985.955 874.759 979.83 882.344C976.084 886.632 941.511 929.076 939.869 932.598C952.651 933.539 975.504 894.031 985.206 884.237C990.413 872.802 1000.59 858.877 1007.12 845.954C1010.32 839.874 1013.46 833.229 1016.52 827.026C1022.18 814.666 1025.92 806.527 1030.16 793.394C1036.47 777.155 1041.45 760.433 1045.06 743.391C1068.87 640.29 1049.76 531.938 992.108 443.205C934.647 354.013 843.825 291.584 739.968 269.888ZM781.026 317.181C690.775 284.452 591.167 289.296 504.519 330.63C414.524 373.751 351.104 448.107 318.143 541.775C291.043 635.57 292.334 709.629 331.143 800.287C340.362 820.602 351.072 834.862 358.403 850.33C366.406 863.999 372.831 870.12 383.873 880.908C376.965 869.368 371.269 859.275 362.977 848.602C354.92 838.436 341.986 808.823 335.98 795.767C303.579 707.976 303.052 637.341 329.351 548.267C347.375 501.161 371.995 458.648 407.103 422.04C471.233 354.922 559.619 316.354 652.437 314.986C755.458 313.356 836.25 350.833 909.454 421.331L899.539 422.035L897.571 424.39C894.704 427.762 895.899 426.467 892.627 429.55C836.072 375.267 792.77 353.88 717.381 336.388C666.823 329.204 633.56 329.449 583.686 340.575C560.434 345.934 541.93 353.018 520.13 362.862C511.562 367.238 484.75 381.181 478.477 387.585C463.885 395.621 441.928 414.17 430.498 426.572C413.844 440.708 392.117 469.678 382.586 489.517C362.382 523.206 353.798 547.549 344.614 585.653C334.947 659.124 334.587 726.113 373.391 793.189L374.848 793.221C354.709 724.709 345.021 695.097 353.538 619.809C356.812 607.174 359.89 594.491 362.771 581.761C382.132 557.457 402.133 493.839 425.476 482.036C422.838 492.532 412.031 505.979 406.14 515.09C390.979 538.553 384.484 561.329 386.004 588.856C374.305 649.896 375.471 706.919 401.381 764.429C406.068 781.987 426.879 811.725 440.071 824.954C422.874 796.327 415.519 782.614 404.279 751.34C384.812 701.377 386.386 647.23 397.751 595.782C405.269 587.657 431.936 536.459 435.515 525.691L438.897 525.93L442.575 530.512C422.448 560.031 421.138 554.282 423.843 598.068L423.682 601.432C413.995 645.279 416.266 721.903 445.847 758.154C428.395 705.303 424.338 673.032 433.194 617.305L437.796 602.902L440.303 599.521C449.806 586.544 468.337 559.811 471.628 544.589C485.708 536.075 485.833 538.363 488.13 521.433L495.122 520.295L497.546 522.48C493.921 532.788 490.981 533.009 485.029 542.013C470.212 564.428 465.185 575.739 465.592 602.41C464.344 609.547 461.549 623.011 461.332 629.687C457.083 654.808 460.285 679.87 467.213 704.199L465.651 650.896C472.268 595.051 493.703 548.972 538.728 513.594C579.524 481.584 631.412 467.191 682.868 473.608C732.623 480.34 777.736 506.367 808.466 546.071C839.731 587.047 853.143 638.906 845.667 689.902C838.558 740.051 812.197 785.456 772.174 816.498C766.129 820.627 758.236 824.401 755.966 830.121C763.389 829.601 773.205 823.019 778.686 818.243C868.763 748.471 884.991 650.561 834.283 550.873C844.87 543.422 840.541 553.011 849.978 540.853C882.967 592.336 893.932 654.894 880.417 714.526C870.57 758.599 852.552 789.864 823.974 823.941C818.948 828.696 810.74 835.086 809.234 841.192C816.303 839.019 821.067 833.727 826.766 828.727C925.484 731.217 927.417 602.938 844.198 495.003C851.138 486.735 850.853 487.257 853.125 476.684C930.71 564.135 947.006 661.795 907.318 771.021C901.486 781.68 896.627 791.944 891.151 802.69C886.363 809.991 883.377 811.844 882.85 819.349C889.432 815.765 891.427 810.651 895.348 804.093C903.087 792.225 905.917 786.859 912.038 774.206C919.404 759.054 925.339 743.245 929.761 726.987C950.987 649.54 938.538 576.708 898.82 507.89C902.984 496.527 904.359 494.428 904.615 482.67C986.735 604.523 984.224 740.87 896.958 859.519C889.687 867.878 881.238 877.187 874.265 885.643C863.355 894.496 857.579 899.942 847.789 909.774C859.43 903.692 869.422 897.681 878.47 887.832C885.979 880.046 893.563 872.333 901.22 864.695C934.265 828.814 958.227 785.533 971.093 738.481C996.922 645.689 980.289 564.177 933.797 482.087C935.421 478.829 942.522 470.767 945.527 466.005C1021.8 587.057 1030.13 720.596 957.182 846.138C952.041 852.94 941.962 864.218 941.41 871.889C948.608 868.228 956.64 855.209 960.675 848.145C974.832 824.427 987.466 800.755 997.011 774.761C1029.55 685.267 1024.91 586.471 984.133 500.418C943.267 414.927 870.258 349.062 781.026 317.181ZM932.935 880.377C926.224 887.003 920.231 889.341 922.489 898.981C927.225 893.437 935.193 887.612 932.935 880.377ZM751.46 520.953C714.456 496.797 669.379 488.318 626.128 497.378C576.976 507.7 546.348 536.068 519.854 576.709C506.777 603.786 504.063 616.895 501.121 647.251C506.859 628.258 511.689 611.421 520.454 593.538L526.255 595.677C518.104 613.881 514.54 637.683 515.456 657.534C522.675 701.37 531.116 721.486 565.822 751.001C557.732 735.952 545.343 713.423 543.712 696.343C544.178 686.716 541.822 674.942 544.813 667.121L548.793 671.201C551.582 687.033 553.717 698.814 562.643 712.845C569.937 725.805 571.89 728.067 581.74 739.018C591.067 746.808 602.403 756.486 614.091 760.116C624.372 765.047 631.609 767.251 643.053 768.936C671.61 773.405 700.752 765.994 723.704 748.427C750.284 735.736 763.707 700.067 769.21 673.061L772.087 674.63L774.06 688.527C768.083 713.763 763.288 725.882 750.878 748.489C754.242 745.824 757.542 743.077 760.772 740.252C787.472 716.74 797.258 685.674 799.588 651.686C799.331 629.387 796.382 611.588 786.449 591.486L789.09 587.46C789.894 589.111 790.681 590.77 791.447 592.439C823.965 663.608 805.88 741.303 741.099 787.957C727.788 797.542 704.99 806.962 689.634 813.919C691.534 813.6 693.432 813.268 695.327 812.921C737.67 805.074 772.133 783.534 796.399 747.667C820.662 711.563 829.499 667.261 820.943 624.61C812.52 582.18 787.507 544.866 751.46 520.953ZM293.154 807.328L295.355 808.327L295.718 806.41L294.421 806.376L293.154 807.328ZM193.953 746.56C194.114 759.527 199.957 781.792 206.74 792.752C204.128 776.314 202.411 764.956 197.86 748.923C196.597 748.07 195.449 746.838 193.953 746.56ZM653.161 626.48C661.822 624.781 670.794 626.941 677.734 632.397C685.053 638.112 689.834 646.469 691.054 655.674C692.291 665.369 689.138 672.735 685.395 681.46C684.407 681.657 683.484 681.883 682.617 682.134C683.195 681.967 683.798 681.811 684.429 681.667C684.744 681.595 685.067 681.526 685.396 681.46C698.663 682.406 703.303 650.127 702.952 640.585C715.401 685.088 682.688 718.351 638.871 702.714C639.394 702.716 639.908 702.715 640.412 702.709C640.915 702.703 641.409 702.693 641.893 702.679C643.345 702.636 644.711 702.558 645.998 702.446C646.855 702.372 647.678 702.283 648.467 702.181C649.257 702.078 650.013 701.961 650.739 701.832C651.827 701.638 652.846 701.416 653.802 701.168C654.44 701.003 655.05 700.826 655.634 700.639C651.543 701.949 646.201 702.747 638.871 702.714C622.568 692.834 619.155 687.462 612.124 669.712C609.896 650.576 612.424 642.237 623.407 627.188L619.71 648.575C620.296 656.679 620.655 659.561 622.252 667.508L625.468 668.388C627.105 659.499 626.497 655.156 627.672 647.045C634.175 636.488 640.121 629.07 653.161 626.48ZM660.264 698.697C659.814 698.939 659.344 699.172 658.853 699.398C659.344 699.172 659.814 698.939 660.264 698.697ZM673.945 686.574C671.043 688.913 668.949 691.633 666.339 694.167C666.8 693.72 667.245 693.267 667.68 692.812C667.971 692.508 668.257 692.203 668.542 691.898C669.396 690.982 670.235 690.064 671.117 689.168C671.41 688.87 671.709 688.574 672.014 688.281C672.625 687.696 673.262 687.124 673.945 686.574ZM680.177 682.959C678.401 683.656 676.895 684.475 675.565 685.375L676.146 684.994C677.331 684.243 678.655 683.556 680.177 682.959Z" fill="#A83500"/>
</svg>
