<svg width="960" height="960" viewBox="0 0 960 960" fill="none" xmlns="http://www.w3.org/2000/svg">
<path d="M451.865 0.830525C716.481 -14.6224 943.505 187.418 958.854 452.04C974.203 716.661 772.093 943.601 507.463 958.865C242.971 974.111 16.1692 772.124 0.820214 507.637C-14.5287 243.152 187.384 16.2768 451.865 0.830525ZM764.447 121.227C667.074 43.7597 542.584 8.81238 419.12 24.2856C298.73 39.4622 189.195 101.539 114.316 197.024C34.4154 298.702 5.75378 416.724 21.077 543.683C21.9281 556.109 23.0572 561.014 25.9257 573.196C27.0241 582.206 34.8706 618.069 39.4599 623.841C41.1956 619.033 30.0852 579.991 27.5937 573.587C26.2276 562.671 24.9794 551.507 23.1308 540.681C5.69793 436.826 42.2403 307.602 102.742 222.543C173.279 122.341 281.033 54.5893 401.903 34.4448C521.764 14.8682 644.491 43.7142 743.08 114.636C841.504 185.978 907.538 293.525 926.622 413.585C936.889 478.102 932.437 576.328 906.071 636.475C900.801 650.425 895.599 664.802 889.716 678.464C884.906 685.608 881.292 693.413 877.403 701.13C852.129 747.972 819.009 790.126 779.477 825.754C768.738 835.523 747.382 848.711 739.982 857.29L740.965 858.722C779.255 843.237 862.565 743.026 880.711 704.435L894.338 677.322C899.471 665.609 904.434 653.816 909.192 641.948C933.068 568.749 943.863 509.779 935.473 431.662C922.17 309.508 860.587 197.741 764.447 121.227ZM743.458 173.932C661.456 103.155 554.429 68.3406 446.478 77.3315C334.285 86.1588 240.312 139.4 167.993 224.083C112.979 292.572 87.4905 361.973 78.2606 448.502C76.0521 461.777 75.8829 490.239 78.3046 503.604L78.3388 513.972C80.022 529.614 84.4064 557.814 89.2157 573.032L90.1474 571.32C89.4277 563.881 82.2375 515.386 81.0761 511.762C70.4189 410.497 109.861 304.102 173.006 225.54C239.995 144.972 336.058 94.0752 440.342 83.8989C545.736 73.6561 650.896 105.571 732.816 172.666C815.53 241.008 867.46 339.608 877.011 446.477C880.234 482.399 877.556 554.1 864.322 587.395C860.4 600.099 856.255 612.736 851.906 625.301C849.092 631.071 847.234 635.194 844.897 641.168C826.547 679.116 804.154 718.518 775.009 749.182C771.496 752.89 757.812 764.723 758.886 768.296C768.487 761.824 771.495 755.163 779.101 747.765C808.026 719.636 831.066 679.771 848.103 643.09L854.789 626.226C858.729 615.777 864.629 601.831 865.789 591.123C880.319 550.949 884.77 489.902 881.768 447.725C873.855 341.712 824.108 243.2 743.458 173.932ZM744.264 133.17C646.561 57.8484 533.372 32.9938 412.503 48.6069C360.235 57.7241 304.177 75.5966 258.783 103.792L244.519 112.589C213.03 133.245 169.708 168.843 146.549 199.337C71.063 294.403 34.6281 403.32 48.9452 525.295C54.8085 579.547 71.3105 632.111 97.5058 679.979C103.18 693.363 116.97 712.758 126.011 723.978C118.722 708.583 107.766 690.138 99.3202 675.011C77.5556 630.39 63.3343 582.471 57.2323 533.2C42.3883 407.832 80.1241 302.32 156.925 205.042C159.324 203.497 169.033 192.77 171.489 190.169C195.872 164.356 220.744 143.728 250.561 124.165L265.837 114.822C331.724 76.5672 393.38 61.5136 468.405 57.2944C585.096 55.7988 691.892 95.7179 775.981 177.659C857.995 257.48 904.604 366.837 905.372 481.276C905.73 515.071 898.55 582.597 884.924 613.657C881.956 623.422 879.415 631.632 875.766 641.191C872.082 648.113 869.899 654.114 867.068 661.379C851.105 693.172 837.496 718.749 814.848 746.883C833.744 732.737 860.639 685.545 870.343 663.525C874.077 656.666 876.925 649.694 880.046 642.543L886.715 624.346C910.574 559.881 918.623 490.63 910.182 422.412C895.975 307.624 836.183 203.38 744.264 133.17ZM627.601 130.88C531.9 90.2741 430.082 91.5155 334.21 130.334C329.585 132.328 324.613 134.124 320.484 136.839C304.122 143.32 281.914 156.276 267.553 166.665C181.265 228.564 128.067 308.23 108.912 414.048C96.9536 480.113 105.938 565.905 135.642 626.832C140.887 638.66 145.301 647.252 151.527 658.63C154.549 665.788 160.964 673.34 165.785 679.708C161.782 670.503 159.952 666.293 154.422 657.597C148.504 646.101 144 635.868 138.861 623.978C111.622 552.674 103.185 479.524 119.816 404.69C126.157 376.15 137.123 339.267 152.642 314.338C165.518 307.494 166.96 293.16 176.114 285.627L175.226 282.37L176.8 280.765C177.323 299.254 160.111 314.704 165.744 336.498C154.872 359.637 150.543 374.665 143.779 399.29C136.106 438.547 129.524 500.363 140.614 539.406C141.486 536.51 138.171 496.483 137.933 489.162C138.532 484.086 138.107 474.015 138.048 468.513C139.018 445.896 142.844 422.993 146.783 400.707C180.36 294.295 224.141 232.726 323.48 177.216C405.046 135.007 500.24 127.664 587.314 156.868C673.583 185.355 744.851 247.204 785.207 328.604C805.74 369.916 815.7 408.417 820.117 454.078C822.692 495.791 818.429 554.09 802.364 593.119L797.214 607.375C795.611 611.095 793.649 615.39 792.233 619.113L784.389 635.54C771.393 658.43 761.26 675.743 744.392 696.529C740.321 701.544 716.978 725.883 716.218 727.301L717.747 728.423C749.766 696.235 767.612 677.083 788.209 634.823C790.972 630.058 792.609 625.934 794.843 620.92L799.771 608.975C801.954 604.502 803.183 599.805 804.718 595.025C817.611 561.636 831.612 490.426 824.398 455.787C824.023 429.55 816.467 394.693 808.196 369.968C778.897 282.226 715.753 209.825 632.811 168.862C539.968 123.165 451.352 123.982 355.262 156.354C343.658 156.426 322.798 166.112 315.716 161.712C325.64 147.027 340.298 154.712 350.068 137.985C443.698 104.025 543.396 106.175 634.142 148.485C723.308 189.995 792.25 265.346 825.677 357.845C857.653 446.497 854.823 543.971 817.781 630.625C814.029 637.544 811.743 643.56 808.793 650.804C795.405 673.86 780.893 696.241 765.288 717.864L768.049 718.397C769.727 715.424 781.404 700.055 784.286 696.216C796.036 680.578 803.336 669.11 812.222 651.73C816.485 644.255 818.804 640.488 821.618 632.243C823.46 628.293 825.251 624.318 826.974 620.317C865.226 529.528 866.096 427.314 829.395 335.891C791.757 243.639 719.244 169.967 627.601 130.88ZM650.063 207.082C575.384 159.975 490.574 148.041 405.063 167.123C391.481 170.396 372.674 175.876 359.933 181.576C286.95 205.989 202.658 291.254 181.332 365.536C152.546 446.856 152.827 531.248 190.488 609.956L191.729 612.512L198.881 626.843C205.858 639.513 210.505 646.323 219.53 657.396C214.283 646.249 208.488 635.998 202.531 625.228L192.822 603.527C192.762 603.418 192.705 603.308 192.647 603.199C162.27 529.405 160.969 446.843 189.006 372.128C191.886 364.943 194.939 357.83 198.162 350.793C234.36 272.603 298.389 218.433 378.491 189.009C390.398 184.139 404.573 181.178 417.217 178.132C501.354 162.369 583.573 177.239 654.672 225.915C723.892 273.275 771.155 346.489 785.805 429.071C795.304 481.815 790.63 550.644 768.524 599.817C764.764 608.601 761.109 617.526 756.861 626.074L747.664 642.332C742.444 650.371 735.664 659.879 732.056 668.544C725.115 670.937 721.782 678.925 718.828 685.373C724.918 681.529 728.866 676.925 732.371 670.54L732.056 668.544C739.945 661.888 745.36 652.305 751.099 643.592L760.995 625.98C764.817 618.543 768.403 610.988 771.751 603.326C799.277 544.244 805.382 469.433 791.125 406.17C772.45 323.689 721.688 252.044 650.063 207.082ZM538.774 196.506C458.418 179.747 383.761 197.277 315.876 241.92C260.567 271.218 193.798 379.036 194.545 441.537C189.429 484.509 193.674 492.498 196.53 531.738C198.884 542.797 200.592 552.517 204.77 563.058C207.34 572.177 208.661 577.713 212.706 586.383L213.738 586.543L214.769 584.552C212.368 577.287 209.797 570.079 207.057 562.937C203.879 549.723 201.41 538.365 199.02 524.999C193.026 503.187 194.929 470.738 197.056 448.335C210.575 354.852 247.533 300.697 321.393 244.979C379.864 203.348 457.2 188.968 527.486 200.884C602.346 213.624 668.978 255.842 712.468 318.092C756.328 381.132 773.167 459.092 759.228 534.615C757.499 544.1 752.183 565.869 748.395 574.526C744.923 583.505 741.365 592.451 737.723 601.362C735.042 606.335 733.062 610.007 730.86 615.195C726.706 621.854 717.879 636.917 713.419 642.439C710.692 645.562 685.516 676.468 684.322 679.03C693.629 679.715 710.269 650.947 717.333 643.817C721.124 635.491 728.537 625.352 733.285 615.944C735.616 611.517 737.904 606.678 740.131 602.163C744.254 593.163 746.98 587.236 750.067 577.674C754.658 565.851 758.284 553.675 760.91 541.266C778.249 466.198 764.332 387.306 722.358 322.7C680.521 257.759 614.393 212.304 538.774 196.506ZM568.669 230.941C502.957 207.111 430.432 210.638 367.343 240.734C301.817 272.131 255.64 326.27 231.642 394.47C211.91 462.762 212.849 516.684 241.106 582.693C247.819 597.484 255.617 607.867 260.955 619.129C266.782 629.082 271.46 633.539 279.499 641.394C274.47 632.991 270.322 625.642 264.285 617.871C258.418 610.469 249.002 588.908 244.629 579.402C221.038 515.481 220.653 464.051 239.802 399.196C252.925 364.898 270.851 333.944 296.414 307.29C343.107 258.421 407.462 230.339 475.043 229.343C550.053 228.156 608.878 255.443 662.178 306.773L654.959 307.287L653.526 309C651.439 311.456 652.308 310.513 649.926 312.757C608.748 273.234 577.22 257.661 522.329 244.925C485.517 239.695 461.298 239.874 424.984 247.975C408.055 251.877 394.582 257.034 378.71 264.202C372.471 267.387 352.949 277.54 348.382 282.203C337.757 288.054 321.77 301.559 313.447 310.589C301.322 320.882 285.503 341.974 278.563 356.419C263.852 380.949 257.602 398.674 250.915 426.417C243.877 479.912 243.614 528.687 271.868 577.526L272.929 577.547C258.265 527.664 251.211 506.104 257.412 451.287C259.796 442.088 262.038 432.852 264.136 423.583C278.233 405.888 292.795 359.567 309.791 350.973C307.87 358.615 300.002 368.406 295.713 375.04C284.674 392.123 279.945 408.706 281.052 428.748C272.533 473.192 273.382 514.711 292.248 556.584C295.661 569.368 310.813 591.021 320.418 600.653C307.897 579.809 302.542 569.825 294.357 547.054C280.184 510.676 281.33 471.251 289.604 433.791C295.079 427.874 314.495 390.598 317.1 382.758L319.563 382.932L322.241 386.268C307.586 407.762 306.633 403.575 308.602 435.457L308.485 437.906C301.432 469.831 303.085 525.621 324.623 552.016C311.916 513.535 308.963 490.039 315.411 449.463L318.762 438.976L320.587 436.514C327.506 427.066 340.999 407.602 343.395 396.518C353.647 390.319 353.737 391.984 355.41 379.658L360.501 378.83L362.266 380.42C359.626 387.926 357.486 388.087 353.152 394.642C342.364 410.963 338.703 419.199 339 438.619C338.091 443.815 336.057 453.618 335.898 458.478C332.805 476.769 335.136 495.017 340.181 512.731L339.043 473.92C343.861 433.26 359.467 399.708 392.251 373.95C421.954 350.643 459.734 340.164 497.199 344.836C533.426 349.738 566.272 368.689 588.647 397.597C611.411 427.432 621.177 465.19 615.733 502.321C610.557 538.834 591.364 571.894 562.224 594.497C557.822 597.503 552.075 600.251 550.423 604.415C555.827 604.037 562.974 599.244 566.965 595.767C632.55 544.966 644.366 473.676 607.445 401.093C615.154 395.668 612.002 402.65 618.873 393.797C642.892 431.283 650.875 476.832 641.035 520.25C633.865 552.34 620.747 575.104 599.939 599.916C596.279 603.378 590.303 608.031 589.207 612.477C594.354 610.894 597.823 607.041 601.973 603.4C673.849 532.403 675.256 439.001 614.664 360.414C619.717 354.394 619.51 354.774 621.164 347.076C677.654 410.749 689.519 481.856 660.622 561.383C656.375 569.145 652.839 576.618 648.851 584.443C645.366 589.759 643.191 591.108 642.808 596.572C647.6 593.962 649.052 590.239 651.907 585.464C657.542 576.823 659.602 572.915 664.058 563.703C669.422 552.67 673.744 541.161 676.964 529.324C692.418 472.934 683.353 419.905 654.434 369.797C657.467 361.524 658.468 359.996 658.654 351.435C718.446 440.157 716.618 539.431 653.079 625.82C647.785 631.906 641.634 638.684 636.557 644.84C628.613 651.287 624.407 655.252 617.278 662.412C625.754 657.983 633.03 653.606 639.618 646.435C645.086 640.766 650.608 635.151 656.183 629.589C680.243 603.464 697.69 571.95 707.058 537.692C725.863 470.13 713.753 410.78 679.902 351.01C681.084 348.638 686.255 342.767 688.443 339.3C743.977 427.439 750.041 524.669 696.929 616.077C693.185 621.029 685.847 629.241 685.444 634.827C690.685 632.161 696.533 622.682 699.472 617.539C709.779 600.269 718.979 583.034 725.929 564.107C749.619 498.946 746.241 427.013 716.552 364.357C686.797 302.11 633.639 254.153 568.669 230.941ZM679.274 641.006C674.388 645.831 670.024 647.534 671.668 654.553C675.116 650.516 680.918 646.274 679.274 641.006ZM547.142 379.308C520.199 361.72 487.377 355.546 455.887 362.143C420.098 369.659 397.798 390.314 378.508 419.905C368.986 439.619 367.01 449.165 364.868 471.267C369.046 457.438 372.563 445.179 378.945 432.158L383.169 433.715C377.234 446.97 374.639 464.3 375.306 478.753C380.562 510.671 386.708 525.317 411.977 546.807C406.087 535.85 397.067 519.447 395.88 507.011C396.219 500.002 394.504 491.428 396.682 485.734L399.579 488.705C401.61 500.232 403.164 508.81 409.663 519.026C414.974 528.462 416.396 530.11 423.567 538.082C430.358 543.755 438.613 550.801 447.123 553.445C454.608 557.035 459.878 558.639 468.211 559.866C489.003 563.119 510.22 557.724 526.932 544.933C546.285 535.693 556.058 509.723 560.064 490.059L562.161 491.202L563.597 501.32C559.244 519.694 555.753 528.518 546.718 544.979C549.167 543.038 551.57 541.038 553.922 538.981C573.362 521.862 580.488 499.243 582.184 474.496C581.997 458.26 579.85 445.3 572.617 430.664L574.541 427.732C575.126 428.934 575.698 430.142 576.256 431.358C599.932 483.176 586.765 539.747 539.598 573.715C529.906 580.694 513.307 587.554 502.126 592.619C503.509 592.387 504.891 592.144 506.27 591.892C537.101 586.179 562.193 570.496 579.861 544.38C597.528 518.093 603.962 485.837 597.732 454.783C591.6 423.889 573.388 396.719 547.142 379.308ZM213.446 587.82L215.049 588.546L215.313 587.151L214.37 587.126L213.446 587.82ZM141.218 543.574C141.335 553.015 145.589 569.227 150.528 577.207C148.627 565.238 147.376 556.968 144.062 545.294C143.143 544.674 142.307 543.777 141.218 543.574ZM475.569 456.143C481.876 454.907 488.408 456.48 493.461 460.452C498.79 464.613 502.272 470.698 503.16 477.4C504.061 484.459 501.765 489.823 499.04 496.175L499.266 496.187C508.752 496.498 512.076 473.307 511.822 466.414C520.887 498.817 497.068 523.035 465.165 511.65C466.309 511.655 467.386 511.633 468.402 511.584C469.08 511.552 469.73 511.509 470.354 511.455C470.979 511.4 471.578 511.336 472.152 511.261C470.14 511.523 467.834 511.662 465.165 511.65C453.295 504.456 450.81 500.544 445.69 487.621C444.068 473.687 445.909 467.616 453.905 456.659L451.214 472.231C451.64 478.132 451.901 480.23 453.064 486.016L455.406 486.657C456.598 480.185 456.155 477.022 457.011 471.117C461.745 463.43 466.075 458.029 475.569 456.143ZM475.324 510.699H475.325H475.324ZM480.238 508.985C479.896 509.155 479.539 509.32 479.166 509.477C479.539 509.32 479.896 509.155 480.238 508.985ZM482.131 507.898H482.132H482.131ZM489.979 500.51C487.758 502.48 486.13 504.737 483.749 506.702C485.378 505.357 486.655 503.876 488.011 502.444C488.428 502.003 488.852 501.567 489.297 501.141C489.519 500.928 489.746 500.717 489.979 500.51ZM492.305 498.748H492.306H492.305ZM494.697 497.49H494.698H494.697ZM497.661 496.489H497.662H497.661Z" fill="#A83500"/>
</svg>
