<svg width="502" height="235" viewBox="0 0 502 235" fill="none" xmlns="http://www.w3.org/2000/svg">
<path d="M245.972 8.14286C245.946 6.34257 245.737 2.44512 246.238 0.95334C248.221 -0.35652 253.574 -0.366973 255.35 1.23629C255.825 3.15734 255.612 6.09562 255.572 8.16105C266.416 9.12216 279.135 13.2282 283.596 24.1786C301.255 24.53 375.569 27.7621 384.727 37.6279C385.211 38.1473 385.339 38.5592 385.497 39.228C384.341 47.2645 346.546 50.0499 339.652 51.4778C346.67 52.1292 385.466 55.861 385.718 63.9005C382.472 70.2311 352.277 73.6695 344.956 74.5122C324.57 76.6934 304.101 78.009 283.603 78.4557C278.861 89.0964 265.928 90.7325 255.551 91.6379C255.835 100.158 254.724 100.963 246.036 99.2892C245.981 96.7423 245.955 94.1949 245.957 91.6476C235.657 90.7093 222.452 89.1277 217.793 78.424C200.205 78.0597 126.528 75.0611 116.573 64.8802C116.04 64.3345 115.846 63.9118 115.718 63.1492C117.235 57.8788 141.672 53.256 147.2 53.3578C154.337 53.489 165.1 55.1054 172.541 55.5955C190.162 56.8349 207.834 57.1821 225.489 56.6359L232.945 56.3464C234.623 56.4347 237.255 56.1041 239.003 55.9407C242.447 55.9965 244.027 55.779 247.476 55.2789C244.227 55.0853 241.756 55.0242 238.504 55.0915C234.212 54.8728 226.142 54.3386 222.077 54.7559C203.708 54.4099 127.276 51.225 117.114 41.5513C116.258 40.7365 116.135 40.1516 115.972 39.0171C116.736 37.014 118.546 36.2243 120.4 35.3855C138.273 27.3007 195.393 24.4944 217.8 24.1585C223.107 12.9105 234.346 9.34317 245.972 8.14286ZM233.828 19.8739C230.109 20.1081 225.347 21.5832 221.708 22.6581C226.152 23.9378 230.683 24.8978 235.265 25.5302L228.402 25.9092C215.9 26.2932 193.333 27.7304 181.056 30.3087C191.89 31.5345 202.77 32.3211 213.668 32.6667C216.471 32.7782 223.06 33.1649 225.738 32.969C227.856 33.0403 230.061 33.1723 232.167 33.0453C237.423 33.3201 242.244 33.3139 247.509 33.2984L257.432 33.2957C264.324 33.5198 286.276 33.1231 292.807 32.3064C296.518 32.6745 311.198 31.245 315.633 30.8719C316.808 30.7933 317.725 30.8835 318.657 30.2204C317.787 29.5264 317.311 29.7246 315.976 29.593C310.112 28.5665 299.557 27.291 293.641 27.2206C290.256 26.4917 285.319 26.7395 281.446 26.1089C278.852 24.9721 277.682 26.0687 275.901 23.7814C277.215 23.4191 277.515 23.5778 278.314 22.7371C276.738 20.9933 269.837 20.0168 267.436 19.8627C266.156 19.4911 265.044 19.4768 263.719 19.3789C265.414 18.6217 271.031 18.0032 274.204 16.8273C267.287 14.6051 260.054 13.702 252.81 13.6111C249.156 13.0781 239.25 13.901 235.85 14.8931C232.935 15.0777 229.738 16.0624 226.939 16.9113C228.8 17.3862 231.617 18.2219 233.452 18.3399L236.502 19.0491L236.43 19.3223L233.828 19.8739ZM163.117 34.4604L158.765 33.2822C159.504 32.9702 161.826 32.1171 162.248 31.6247C160.936 31.8047 160.272 31.7761 159.176 32.5262L158.895 33.2342C159.644 34.4755 161.58 34.9721 162.949 35.3015C176.807 37.8388 191.658 38.6904 205.734 39.3124C226.557 40.164 247.402 40.4156 268.24 40.068C282.172 39.9472 296.097 39.4274 309.999 38.5092C314.908 38.1609 322.743 37.648 327.502 36.8514C329.414 36.8305 338.615 35.1847 337.938 35.0774L337.613 35.2365L337.376 34.7573C332.97 35.1951 327.99 35.5164 323.664 36.1129C320.418 36.0412 314.962 36.4934 311.578 36.6435C304.576 36.9656 297.569 37.1897 290.56 37.3159C266.464 37.8055 242.36 37.8555 218.262 37.4657C200.03 37.1483 181.202 36.7527 163.117 34.4604ZM123.266 62.2586C127.841 60.2404 132.337 58.9994 137.139 57.731C138.791 57.4012 140.084 57.2754 141.54 56.4408L140.834 56.8248L140.908 56.1413C139.588 56.1916 138.114 56.6174 136.804 56.934C133.925 57.3663 123.923 59.3276 121.909 61.7039C121.525 62.1572 121.74 62.3128 121.906 63.0095C130.948 71.8452 220.136 75.7365 235.298 75.5453C236.793 75.5197 238.287 75.4516 239.778 75.3417C241.226 76.0512 247.852 75.4818 249.752 75.3827C246.377 74.6871 243.717 74.5033 240.252 74.8366C230.088 74.7638 213.757 73.296 203.325 72.5435C190.648 71.6087 177.985 70.4874 165.341 69.1795C151.744 67.8019 136.308 66.3012 123.266 62.2586ZM223.389 51.6628C226.349 52.2597 232.6 52.0266 235.827 51.9469C240.336 52.1807 243.761 51.9605 248.227 51.5122C245.897 51.1321 238.674 50.8538 236.28 50.8647C233.981 50.697 231.787 50.5353 229.481 50.4698C212.915 49.7894 193.628 48.2318 177.109 46.7493C162.915 45.4754 136.252 43.0341 123.239 38.6122C127.372 36.8812 131.34 35.7049 135.615 34.4492C138.062 34.0768 140.447 33.3801 142.71 32.3776C139.879 32.7027 137.808 32.8854 135.053 33.6298C131.875 34.3257 123.615 35.9696 121.381 38.1837C121.408 38.8789 121.483 39.6472 122.21 39.9445C140.355 47.3682 206.568 52.675 223.389 51.6628ZM278.981 42.6854C272.342 42.3691 262.332 42.6892 255.615 42.7678C250.851 42.416 242.097 42.6718 237.025 42.752C233.902 42.6223 231.2 42.6494 228.069 42.716C225.508 42.5878 223.91 42.5046 221.343 42.6773C218.18 42.0885 208.982 42.3997 205.226 42.1706C190.402 41.2656 155.63 41.3802 142.71 36.4964C142.998 34.0652 146.778 33.6251 148.955 33.1107L148.989 32.8061C146.619 32.5309 142.132 33.4378 141.602 36.1318L142.03 37.0635C150.838 42.1764 196.574 46.0541 207.616 45.4712C210.011 45.7007 222.276 46.3657 224.442 46.135C231.785 46.4234 239.174 46.3428 246.526 46.4625C254.567 46.8855 271.983 46.3576 280.256 46.0181C297.875 45.5532 347.003 43.9163 360.429 36.4446C337.315 42.9525 303.303 41.2319 278.981 42.6854Z" fill="#5300C7"/>
<path d="M12.032 233.16V217.8H35.328C41.984 217.8 47.616 216.477 52.224 213.832C56.9173 211.101 60.4587 207.389 62.848 202.696C65.3227 198.003 66.56 192.627 66.56 186.568C66.56 180.595 65.3653 175.347 62.976 170.824C60.5867 166.301 57.0453 162.76 52.352 160.2C47.744 157.64 42.0693 156.36 35.328 156.36H12.416V141H35.328C45.6533 141 54.656 142.877 62.336 146.632C70.016 150.301 75.9467 155.592 80.128 162.504C84.3947 169.331 86.528 177.437 86.528 186.824C86.528 196.211 84.3947 204.403 80.128 211.4C75.8613 218.312 69.888 223.688 62.208 227.528C54.6133 231.283 45.696 233.16 35.456 233.16H12.032ZM0 233.16V141H19.712V233.16H0Z" fill="#5300C7"/>
<path d="M87.278 233.16V141H128.494C135.15 141 140.953 142.152 145.902 144.456C150.851 146.675 154.691 149.832 157.422 153.928C160.153 158.024 161.518 162.803 161.518 168.264C161.518 173.64 160.153 178.376 157.422 182.472C154.691 186.483 150.851 189.64 145.902 191.944C140.953 194.163 135.15 195.272 128.494 195.272H102.894V180.808H127.982C132.675 180.808 136.259 179.741 138.734 177.608C141.294 175.389 142.574 172.317 142.574 168.392C142.574 164.381 141.337 161.352 138.862 159.304C136.387 157.171 132.761 156.104 127.982 156.104H106.99V233.16H87.278ZM139.246 233.16L102.254 185.288H123.118L165.87 233.16H139.246Z" fill="#5300C7"/>
<path d="M201.477 234.44C188.336 234.44 178.48 230.856 171.909 223.688C165.424 216.435 162.181 205.896 162.181 192.072V141H181.893V195.528C181.893 203.549 183.642 209.437 187.141 213.192C190.64 216.947 195.461 218.824 201.605 218.824C207.749 218.824 212.57 216.947 216.069 213.192C219.568 209.437 221.317 203.592 221.317 195.656V141H241.029V192.328C241.029 205.981 237.744 216.435 231.173 223.688C224.602 230.856 214.704 234.44 201.477 234.44Z" fill="#5300C7"/>
<path d="M243.87 233.16V141H274.59L300.19 229.832H289.054L314.654 141H345.502V233.16H326.046V146.504H329.374L304.414 233.16H284.062L259.358 147.272H262.558V233.16H243.87Z" fill="#5300C7"/>
<path d="M380.005 234.312C375.653 234.312 371.856 233.501 368.613 231.88C365.37 230.173 362.853 227.827 361.061 224.84C359.269 221.853 358.33 218.44 358.245 214.6L359.653 214.472L355.173 233.16H345.573L366.821 141H377.061L367.845 180.936L366.565 180.424C369.04 175.987 372.41 172.573 376.677 170.184C381.029 167.795 385.808 166.6 391.013 166.6C398.608 166.6 404.581 169.032 408.933 173.896C413.285 178.675 415.461 185.245 415.461 193.608C415.461 199.24 414.522 204.531 412.645 209.48C410.853 214.344 408.293 218.653 404.965 222.408C401.722 226.077 397.968 228.979 393.701 231.112C389.434 233.245 384.869 234.312 380.005 234.312ZM379.621 225.352C383.205 225.352 386.533 224.584 389.605 223.048C392.677 221.427 395.365 219.251 397.669 216.52C399.973 213.704 401.765 210.461 403.045 206.792C404.325 203.123 404.965 199.24 404.965 195.144C404.965 189.085 403.472 184.307 400.485 180.808C397.584 177.309 393.488 175.56 388.197 175.56C385.381 175.56 382.65 176.072 380.005 177.096C377.445 178.12 375.098 179.571 372.965 181.448C370.832 183.24 368.954 185.416 367.333 187.976C365.712 190.451 364.474 193.181 363.621 196.168C362.768 199.155 362.341 202.269 362.341 205.512C362.341 211.656 363.92 216.52 367.077 220.104C370.234 223.603 374.416 225.352 379.621 225.352Z" fill="#5300C7"/>
<path d="M414.238 233.16L435.486 141H445.726L424.478 233.16H414.238Z" fill="#5300C7"/>
<path d="M466.108 234.44C460.561 234.44 455.697 233.245 451.516 230.856C447.335 228.467 444.092 225.139 441.788 220.872C439.484 216.52 438.332 211.485 438.332 205.768C438.332 201.416 438.929 197.277 440.124 193.352C441.404 189.427 443.153 185.843 445.372 182.6C447.591 179.357 450.236 176.541 453.308 174.152C456.38 171.763 459.751 169.928 463.42 168.648C467.089 167.283 470.972 166.6 475.068 166.6C480.359 166.6 484.967 167.667 488.892 169.8C492.903 171.933 495.975 174.92 498.108 178.76C500.327 182.6 501.436 187.08 501.436 192.2C501.436 194.163 501.223 196.125 500.796 198.088C500.455 199.965 499.857 201.8 499.004 203.592H446.14L448.06 195.016H494.524L490.172 201.928C490.94 198.771 491.281 195.656 491.196 192.584C491.196 189.427 490.599 186.568 489.404 184.008C488.295 181.363 486.545 179.272 484.156 177.736C481.767 176.115 478.567 175.304 474.556 175.304C471.74 175.304 469.052 175.816 466.492 176.84C463.932 177.864 461.585 179.315 459.452 181.192C457.319 182.984 455.441 185.16 453.82 187.72C452.199 190.195 450.961 192.968 450.108 196.04C449.255 199.027 448.828 202.184 448.828 205.512C448.828 211.827 450.492 216.776 453.82 220.36C457.148 223.944 461.713 225.736 467.516 225.736C471.441 225.736 474.855 224.883 477.756 223.176C480.657 221.384 483.132 218.696 485.18 215.112H494.908C491.751 221.597 487.74 226.461 482.876 229.704C478.012 232.861 472.423 234.44 466.108 234.44Z" fill="#5300C7"/>
</svg>
