<svg width="21" height="26" viewBox="0 0 21 26" fill="none" xmlns="http://www.w3.org/2000/svg">
<path d="M5.98828 23.7305C7.58984 24.8711 9.45703 25.4414 11.5898 25.4414C13.4336 25.4414 15.0039 25.0703 16.3008 24.3281C17.6055 23.5938 18.5977 22.5273 19.2773 21.1289C19.9648 19.7383 20.3086 18.0664 20.3086 16.1133V13.6406C20.3086 12.9062 20.1992 12.2617 19.9805 11.707C19.7695 11.1523 19.4805 10.7188 19.1133 10.4062C18.7461 10.0938 18.3359 9.9375 17.8828 9.9375C17.5 9.9375 17.3086 10.1289 17.3086 10.5117V11.543C17.3086 11.7461 17.2656 11.8984 17.1797 12C17.1016 12.1016 17.0039 12.1523 16.8867 12.1523C16.7539 12.1523 16.6445 12.1016 16.5586 12C16.4805 11.8984 16.4414 11.7461 16.4414 11.543V10.875C16.4414 10.1953 16.2422 9.64062 15.8438 9.21094C15.4453 8.78125 14.9414 8.56641 14.332 8.56641C13.7305 8.56641 13.4297 8.83984 13.4297 9.38672V10.793C13.4297 11.0039 13.3906 11.1602 13.3125 11.2617C13.2344 11.3633 13.1367 11.4141 13.0195 11.4141C12.8867 11.4141 12.7773 11.3633 12.6914 11.2617C12.6055 11.1602 12.5625 11.0039 12.5625 10.793V9.48047V1.69922C12.5625 1.19922 12.4141 0.792969 12.1172 0.480469C11.8203 0.160156 11.4492 0 11.0039 0C10.5273 0 10.1406 0.160156 9.84375 0.480469C9.54688 0.792969 9.39844 1.19922 9.39844 1.69922L9.57422 10.793C9.57422 10.9961 9.53125 11.1523 9.44531 11.2617C9.36719 11.3633 9.27344 11.4141 9.16406 11.4141C9.03125 11.4141 8.92188 11.3633 8.83594 11.2617C8.75781 11.1602 8.71875 11.0039 8.71875 10.793V1.69922C8.71875 1.19922 8.57031 0.792969 8.27344 0.480469C7.97656 0.160156 7.60547 0 7.16016 0C6.68359 0 6.29688 0.160156 6 0.480469C5.70312 0.792969 5.55469 1.19922 5.55469 1.69922V14.7422C5.55469 14.875 5.52344 14.9766 5.46094 15.0469C5.40625 15.1172 5.33594 15.1523 5.25 15.1523C5.09375 15.1523 4.96875 15.043 4.875 14.8242L3.19922 10.8164C3.05078 10.4727 2.85156 10.1992 2.60156 9.99609C2.35156 9.78516 2.03906 9.67969 1.66406 9.67969C1.17188 9.67969 0.769531 9.82812 0.457031 10.125C0.152344 10.4219 0 10.7969 0 11.25C0 11.4062 0.0117188 11.5547 0.0351562 11.6953C0.0585938 11.8281 0.09375 11.9492 0.140625 12.0586L2.28516 18.2344C3.16016 20.7578 4.39453 22.5898 5.98828 23.7305Z" fill="white"/>
</svg>
