<svg width="21" height="26" viewBox="0 0 21 26" fill="none" xmlns="http://www.w3.org/2000/svg">
<path d="M11.5898 25.4414C9.45703 25.4414 7.58984 24.8711 5.98828 23.7305C4.39453 22.5898 3.16016 20.7578 2.28516 18.2344L0.140625 12.0586C0.09375 11.9492 0.0585938 11.8281 0.0351562 11.6953C0.0117188 11.5547 0 11.4062 0 11.25C0 10.7969 0.152344 10.4219 0.457031 10.125C0.769531 9.82812 1.17188 9.67969 1.66406 9.67969C2.03906 9.67969 2.35156 9.78516 2.60156 9.99609C2.85156 10.1992 3.05078 10.4727 3.19922 10.8164L4.875 14.8242C4.96875 15.043 5.09375 15.1523 5.25 15.1523C5.33594 15.1523 5.40625 15.1172 5.46094 15.0469C5.52344 14.9766 5.55469 14.875 5.55469 14.7422V1.69922C5.55469 1.19922 5.70312 0.792969 6 0.480469C6.29688 0.160156 6.68359 0 7.16016 0C7.60547 0 7.97656 0.160156 8.27344 0.480469C8.57031 0.792969 8.71875 1.19922 8.71875 1.69922V10.793C8.71875 11.0039 8.75781 11.1602 8.83594 11.2617C8.92188 11.3633 9.03125 11.4141 9.16406 11.4141C9.27344 11.4141 9.36719 11.3633 9.44531 11.2617C9.53125 11.1523 9.57422 10.9961 9.57422 10.793V7.99219C9.57422 7.46094 9.875 7.19531 10.4766 7.19531C11.0938 7.19531 11.5938 7.39453 11.9766 7.79297C12.3672 8.18359 12.5625 8.74609 12.5625 9.48047V10.793C12.5625 11.0039 12.6055 11.1602 12.6914 11.2617C12.7773 11.3633 12.8867 11.4141 13.0195 11.4141C13.1367 11.4141 13.2344 11.3633 13.3125 11.2617C13.3906 11.1602 13.4297 11.0039 13.4297 10.793V9.38672C13.4297 8.83984 13.7305 8.56641 14.332 8.56641C14.9414 8.56641 15.4453 8.78125 15.8438 9.21094C16.2422 9.64062 16.4414 10.1953 16.4414 10.875V11.543C16.4414 11.7461 16.4805 11.8984 16.5586 12C16.6445 12.1016 16.7539 12.1523 16.8867 12.1523C17.0039 12.1523 17.1016 12.1016 17.1797 12C17.2656 11.8984 17.3086 11.7461 17.3086 11.543V10.5117C17.3086 10.1289 17.5 9.9375 17.8828 9.9375C18.3359 9.9375 18.7461 10.0938 19.1133 10.4062C19.4805 10.7188 19.7695 11.1523 19.9805 11.707C20.1992 12.2617 20.3086 12.9062 20.3086 13.6406V16.1133C20.3086 18.0664 19.9648 19.7383 19.2773 21.1289C18.5977 22.5273 17.6055 23.5938 16.3008 24.3281C15.0039 25.0703 13.4336 25.4414 11.5898 25.4414Z" fill="white"/>
</svg>
