<svg width="1284" height="1390" viewBox="0 0 1284 1390" fill="none" xmlns="http://www.w3.org/2000/svg">
<path d="M622.545 2.0026C707.595 -7.84877 712.982 18.4075 744.955 86.0648C878.748 110.583 963.025 157.392 1064.68 244.254C1087.68 220.738 1113.4 193.423 1137.48 171.329C1162.31 149.227 1193.81 130.218 1216.23 105.789C1230.87 89.8381 1232.18 62.2795 1261.53 59.7242C1289.03 57.3281 1289.08 89.3298 1273.57 104.271C1261.2 116.193 1243.35 118.793 1232.28 132.949C1210.61 157.723 1190.91 183.852 1169.85 209.134C1149.31 231.833 1121.81 257.674 1099.65 279.38C1105.39 287.034 1112.32 294.494 1118.72 301.687C1191.71 299.619 1203.23 280.228 1244.08 348.222C1282.71 412.472 1257.43 425.127 1221.73 479.607C1274.16 632.181 1273.08 758.865 1221.59 911.076C1232.91 927.638 1266.36 971.507 1264.34 989.526C1261.06 1018.58 1233.84 1064.62 1211.97 1083.87C1195.38 1098.49 1142.52 1090 1119.52 1088.06L1101.48 1108.52C1127.62 1135.02 1246.7 1240.35 1250.78 1266.85C1252.42 1277.5 1250.08 1287.72 1243.24 1296.15C1236.87 1303.99 1226.7 1309.52 1216.53 1309.9C1207.35 1310.25 1198.64 1306.57 1191.26 1301.37C1171.91 1287.79 1155.33 1267.53 1138.93 1250.57C1109.68 1219.79 1079.95 1189.45 1049.78 1159.56C957.614 1240.07 863.429 1280.62 745.166 1304.58C719.634 1355.15 722.094 1382.58 661.193 1388.71C574.902 1395.9 574.083 1373.68 539.533 1304.23C419.841 1285.21 327.717 1234.74 235.289 1159.45C186.943 1205.53 143.306 1258.49 92.9694 1302.28C61.2544 1329.85 14.0096 1281.53 40.4544 1251.48C84.7009 1201.26 136.864 1156.87 183.406 1108.35L166.05 1088.17C92.29 1095.57 78.5874 1105.19 40.0796 1039.94C2.97719 977.077 28.8834 963.549 63.339 910.994C14.0799 760.635 9.69988 630.413 63.7373 479.529C24.3394 419.592 3.79715 414.61 42.2815 346.44C78.5407 282.223 102.971 298.272 166.307 301.687L186.03 279.518C160.873 254.66 133.96 229.397 110.185 203.26C89.245 181.594 68.7496 144.028 45.6543 125.686C31.9752 114.834 -17.2603 97.4667 6.28002 64.8935C44.132 40.3587 58.6543 99.9659 76.4559 113.359C130.306 153.886 174.014 196.606 221.165 244.31C319.331 155.383 410.799 111.447 539.744 86.1139C565.791 38.9651 561.387 7.04774 622.545 2.0026ZM687.545 1222.34C979.585 1197.44 1195.73 939.927 1169.62 648.019C1143.52 356.111 885.096 141.039 593.289 168.366C303.193 195.531 89.6431 452.1 115.596 742.291C141.549 1032.48 397.237 1247.08 687.545 1222.34ZM1074.33 303.809C1086.28 316.574 1118.84 350.454 1126.14 364.332C1134.18 375.61 1138.72 382.948 1149.47 392.033C1142.85 379.941 1138.89 373.12 1130.9 361.704C1112.75 338.71 1101.41 321.725 1081.34 298.853C964.22 175.364 825.437 108.398 653.675 104.425C499.62 101.029 350.437 158.451 238.404 264.256C225.17 277.068 212.311 290.245 199.803 303.769C191.253 313.658 183.992 322.186 176.052 332.607C160.99 351.579 150.801 367.546 138.387 388.356C145.016 384.576 174.74 343.922 183.523 334.057C190.504 325.613 199.732 316.155 207.298 307.971C415.32 84.4299 785.009 63.788 1019.92 255.306C1039.53 271.283 1056.23 286.331 1074.33 303.809ZM1214.64 390.11C1221.66 386.541 1226.26 379.458 1226.61 371.572C1226.98 363.685 1223.09 356.212 1216.39 352.003C1209.72 347.794 1201.29 347.501 1194.33 351.234C1183.77 356.917 1179.71 370.054 1185.26 380.702C1190.84 391.349 1203.91 395.544 1214.64 390.11ZM90.2757 1039.2C100.886 1033.82 105.243 1020.93 100.066 1010.21C94.8899 999.495 82.101 994.888 71.2795 999.853C64.0885 1003.15 59.2399 1010.07 58.6074 1017.96C57.975 1025.84 61.6524 1033.45 68.2109 1037.85C74.7928 1042.26 83.2253 1042.77 90.2757 1039.2ZM650.044 66.4698C661.381 62.324 667.19 49.7651 663.02 38.4451C658.851 27.1229 646.273 21.3399 634.959 25.5419C623.693 29.7297 617.931 42.2466 622.1 53.529C626.246 64.8115 638.754 70.5991 650.044 66.4698ZM70.6001 351.265C59.8957 356.682 55.6093 369.738 61.0201 380.435C66.4309 391.134 79.4775 395.43 90.1819 390.033C100.91 384.63 105.196 371.555 99.7854 360.842C94.3746 350.129 81.3045 345.84 70.6001 351.265ZM637.653 1323.08C625.941 1325.75 618.633 1337.42 621.327 1349.13C624.021 1360.82 635.709 1368.12 647.397 1365.43C659.085 1362.71 666.37 1351.07 663.676 1339.39C660.983 1327.7 649.341 1320.39 637.653 1323.08ZM1214.54 1039.17C1225.18 1033.85 1229.58 1020.98 1224.43 1010.26C1219.28 999.544 1206.49 994.932 1195.69 999.9C1188.54 1003.19 1183.72 1010.07 1183.09 1017.92C1182.43 1025.76 1186.08 1033.34 1192.6 1037.74C1199.11 1042.15 1207.52 1042.69 1214.54 1039.17Z" fill="#A83500"/>
</svg>
