<svg width="1927" height="1768" viewBox="0 0 1927 1768" fill="none" xmlns="http://www.w3.org/2000/svg">
<path d="M952.977 0.0761719L972.466 0.259766L982.147 0.350586C1097.3 1.11064 1206.72 29.4084 1312.82 72C1358.02 49.8711 1409.09 18.2701 1457.17 58.2891C1491.1 86.5568 1489.47 134.674 1491.83 175.365C1527.56 204.685 1555 226.054 1588.45 259.438C1728.91 399.548 1817.8 583.04 1840.69 780.096C1883.78 808.393 1936.43 837.976 1925.15 899.247C1917.17 942.686 1874.89 965.195 1840.81 987.383C1840.52 990.277 1840.2 993.171 1839.85 996.035C1809.24 1239.54 1684.86 1442.68 1491.78 1591.97C1488.79 1643.42 1490.49 1702.99 1430.74 1724.1C1388.73 1738.95 1349.02 1714.13 1312.32 1695.77L1309.93 1696.82C1079.15 1796.19 843.678 1787.24 613.137 1695.62C567.637 1719.16 515.998 1749.65 468.44 1708.11C435.059 1678.93 437.184 1633.3 435.521 1592.49C228.088 1433.06 124.956 1242.52 84.9484 986.271C42.0879 959.115 -9.51553 930.379 1.50799 869.576C9.58784 824.997 50.4131 803.336 85.2726 780.769C122.409 521.477 230.762 337.254 435.959 175.189C437.389 123.711 436.635 64.6623 495.945 43.9365C538.94 28.9111 576.457 53.0278 613.468 72.292C720.265 25.111 828.978 5.29106 944.945 0L952.977 0.0761719ZM170.33 876.358C165.057 891.56 168.674 944.615 173.28 961.453C174.178 973.409 174.817 989.078 176.913 1000.54C180.991 1022.67 184.999 1047.37 190.425 1068.94C208.032 1135.53 223.761 1179.82 253.938 1242.41C356.821 1436.71 516.494 1577.35 728.14 1642.71C931.074 1705.77 1150.82 1684.69 1338.07 1584.19C1476.9 1509.68 1590.61 1395.76 1664.86 1256.79C1696.67 1196.16 1709.79 1158.25 1729.81 1094.23C1741.3 1054.03 1743.35 1014.89 1752.85 979.724C1757.64 960.606 1757.64 919.68 1756.97 899.598C1753.58 922.662 1750.72 940.435 1749.31 963.792C1748.9 997.877 1732.71 1054.38 1723.82 1088.73C1712.36 1125.89 1703.01 1152.49 1686.35 1188.09C1682.37 1196.54 1660.86 1240.8 1659.39 1245.45C1578.62 1378.02 1497.65 1470.65 1360.97 1550.22C1177.93 1656.22 960.167 1684.81 755.964 1629.65C528.84 1568.29 374.779 1429.9 259.787 1230.63C229.45 1164.44 212.539 1126.94 193.821 1055.03C189.048 1034.83 184.871 1014.51 181.293 994.077C180.635 984.664 177.718 971.48 175.914 961.921C177.595 944.878 171.807 897.26 170.33 876.358ZM1714.79 822.688C1680.91 406.857 1315.82 97.5782 900.094 132.569C485.953 167.414 178.107 530.831 211.838 945.054C245.566 1359.31 608.147 1668.12 1022.47 1635.49C1438.38 1602.75 1748.64 1238.49 1714.79 822.688ZM932.618 229.329C1294.82 212.374 1601.92 492.801 1617.88 855.02C1633.84 1217.27 1352.57 1523.62 990.279 1538.56C629.406 1553.47 324.526 1273.54 308.635 912.695C292.744 551.851 571.832 246.225 932.618 229.329ZM949.83 398.293C892.763 401.625 835.926 409.284 783.27 433.284C752.885 443.311 662.14 492.772 646.205 516.977C627.397 532.06 597.083 561.555 583.326 581.141C575.235 592.074 562.992 607.567 556.734 619.056C537.125 648.376 526.388 669.364 512.59 701.987L504.343 724.585C485.295 782.26 470.478 858.06 479.888 918.775C479.993 934.268 480.665 940.583 483.158 955.9C485.669 971.54 487.327 984.957 492.495 1000.07C501.747 1057.39 547.847 1147.02 587.196 1189.5C607.855 1220.86 663.183 1268.95 695.754 1288.62C751.264 1336.42 876.463 1367.26 950.015 1369.1C1080.03 1372.81 1206.07 1324.11 1299.79 1233.93C1393.3 1144.3 1446.96 1020.94 1448.75 891.443C1451.26 761.739 1401.36 636.507 1310.34 544.104C1210.35 441.878 1090.34 399.725 949.83 398.293ZM1843.27 804.563C1843.59 816.344 1841.6 844.173 1846.07 850.896C1854.96 847.915 1853.99 846.307 1861.1 838.034L1880.77 827.92C1871.59 821.927 1852.39 808.627 1843.27 804.563ZM46.4318 828.212L67.8215 839.73L77.6994 850.166L81.923 849.025C84.9572 840.928 84.8232 812.076 79.4386 806.521L46.4318 828.212ZM1129.53 43.3809C907.566 -0.613902 677.217 45.4272 489.209 171.36C464.534 186.707 441.081 203.955 419.061 222.927L393.028 245.494L371.35 264.583C366.617 269.056 353.711 283.525 351.557 285.25C339.534 295.13 331.702 300.334 322.886 313.283L323.889 316.266C336.605 310.039 345.857 297.732 355.65 286.916C358.164 284.227 370.833 273.937 374.294 271.014L402.345 246.37L425.088 228.627C449.053 210.883 473.678 194.016 498.914 178.113C819.708 -10.1434 1180.74 9.29621 1485.58 216.203L1513.82 237.747C1525.98 248.358 1544.83 262.653 1559.33 269.435C1547.08 257.479 1533.17 242.863 1519.63 232.865L1494.03 211.848C1399.19 131.371 1251 66.6791 1129.53 43.3809ZM1391.31 50.6016C1370.71 55.0741 1356.84 64.72 1339.67 76.793L1382.82 67.9072C1394.93 66.1533 1433.16 62.8206 1440.53 60.3066C1424.36 56.8572 1407.63 52.8817 1391.31 50.6016ZM579.397 73.8125C562.062 53.3791 536.051 49.7826 511.096 53.4658L499.85 59.167L499.911 62.0312C522.163 67.907 545.677 67.6144 572.899 74.3086L579.397 73.8125Z" fill="black"/>
</svg>
