<svg width="2458" height="2255" viewBox="0 0 2458 2255" fill="none" xmlns="http://www.w3.org/2000/svg">
<path d="M1215.3 0.0966797L1240.16 0.331055L1252.5 0.447266C1399.35 1.41653 1538.89 37.5025 1674.2 91.8184C1731.84 63.598 1796.97 23.2991 1858.29 74.334C1901.56 110.383 1899.47 171.745 1902.49 223.638C1948.05 261.029 1983.05 288.281 2025.7 330.854C2204.83 509.533 2318.2 743.535 2347.38 994.834C2402.33 1030.92 2469.47 1068.65 2455.09 1146.78C2444.91 1202.18 2391 1230.89 2347.53 1259.18C2347.16 1262.87 2346.75 1266.56 2346.3 1270.22C2307.27 1580.75 2148.65 1839.81 1902.42 2030.19C1898.62 2095.8 1900.78 2171.78 1824.59 2198.69C1771 2217.63 1720.37 2185.98 1673.57 2162.57L1670.52 2163.91C1376.2 2290.62 1075.92 2279.22 781.917 2162.38C723.892 2192.39 658.038 2231.28 597.388 2178.3C554.819 2141.1 557.53 2082.9 555.408 2030.86C290.875 1827.54 159.354 1584.55 108.333 1257.76C53.6744 1223.13 -12.1348 1186.49 1.92303 1108.95C12.227 1052.1 64.2908 1024.47 108.746 995.691C156.106 665.024 294.285 430.09 555.967 223.414C557.79 157.765 556.829 82.4614 632.464 56.0303C687.294 36.8687 735.139 67.6244 782.338 92.1914C918.534 32.0227 1057.17 6.74755 1205.06 0L1215.3 0.0966797ZM217.218 1117.59C210.493 1136.98 215.105 1204.64 220.98 1226.11C222.124 1241.36 222.941 1261.34 225.613 1275.96C230.814 1304.18 235.925 1335.68 242.844 1363.19C265.297 1448.11 285.357 1504.59 323.84 1584.41C455.044 1832.2 658.672 2011.55 928.577 2094.91C1187.37 2175.32 1467.61 2148.44 1706.4 2020.27C1883.44 1925.25 2028.46 1779.97 2123.15 1602.75C2163.71 1525.43 2180.45 1477.08 2205.98 1395.44C2220.64 1344.18 2223.24 1294.26 2235.36 1249.41C2241.47 1225.03 2241.47 1172.84 2240.62 1147.23C2236.29 1176.64 2232.64 1199.31 2230.85 1229.1C2230.33 1272.56 2209.67 1344.63 2198.34 1388.43C2183.73 1435.81 2171.8 1469.73 2150.55 1515.14C2145.48 1525.91 2118.04 1582.35 2116.18 1588.28C2013.18 1757.34 1909.91 1875.48 1735.61 1976.96C1502.18 2112.13 1224.47 2148.59 964.06 2078.24C674.415 1999.99 477.945 1823.51 331.3 1569.38C292.612 1484.98 271.046 1437.15 247.176 1345.45C241.088 1319.69 235.76 1293.78 231.197 1267.72C230.359 1255.71 226.638 1238.9 224.338 1226.71C226.482 1204.98 219.101 1144.25 217.218 1117.59ZM2186.82 1049.15C2143.62 518.853 1678.02 124.438 1147.87 169.062C619.723 213.498 227.134 676.954 270.151 1205.2C313.164 1733.49 775.553 2127.3 1303.93 2085.7C1834.32 2043.95 2229.99 1579.41 2186.82 1049.15ZM1189.34 292.457C1651.25 270.835 2042.89 628.456 2063.24 1090.38C2083.6 1552.35 1724.89 1943.03 1262.88 1962.08C802.664 1981.1 413.859 1624.11 393.594 1163.93C373.329 703.759 729.242 314.004 1189.34 292.457ZM1211.29 507.932C1138.52 512.181 1066.03 521.949 998.883 552.555C960.135 565.341 844.409 628.418 824.088 659.285C800.103 678.521 761.443 716.135 743.9 741.112C733.581 755.055 717.968 774.813 709.987 789.464C684.98 826.855 671.287 853.621 653.692 895.225L643.175 924.042C618.884 997.594 599.987 1094.26 611.987 1171.69C612.122 1191.45 612.978 1199.5 616.158 1219.03C619.361 1238.98 621.475 1256.09 628.066 1275.36C639.865 1348.47 698.655 1462.76 748.836 1516.93C775.181 1556.93 845.739 1618.26 887.276 1643.35C958.065 1704.3 1117.73 1743.63 1211.53 1745.98C1377.33 1750.71 1538.07 1688.6 1657.58 1573.6C1776.84 1459.3 1845.27 1301.98 1847.55 1136.83C1850.75 971.424 1787.12 811.72 1671.04 693.88C1543.53 563.514 1390.48 509.758 1211.29 507.932ZM2350.67 1026.04C2351.08 1041.06 2348.54 1076.55 2354.24 1085.12C2365.58 1081.32 2364.35 1079.27 2373.41 1068.72L2398.5 1055.82C2386.79 1048.18 2362.3 1031.22 2350.67 1026.04ZM59.214 1056.2L86.4904 1070.88L99.0871 1084.19L104.474 1082.74C108.343 1072.41 108.173 1035.62 101.306 1028.53L59.214 1056.2ZM1440.46 55.3223C1157.39 -0.78303 863.637 57.9322 623.875 218.531C592.408 238.103 562.499 260.098 534.416 284.292L501.219 313.071L473.572 337.414C467.537 343.118 451.08 361.57 448.331 363.771C432.998 376.371 423.01 383.007 411.767 399.521L413.046 403.324C429.263 395.384 441.061 379.689 453.55 365.896C456.756 362.466 472.912 349.345 477.326 345.616L513.1 314.189L542.103 291.561C572.664 268.932 604.069 247.422 636.252 227.143C1045.35 -12.9359 1505.76 11.8542 1894.52 275.717L1930.53 303.192C1946.04 316.725 1970.08 334.954 1988.57 343.603C1972.95 328.355 1955.21 309.715 1937.95 296.966L1905.29 270.162C1784.35 167.532 1595.37 85.0339 1440.46 55.3223ZM1774.29 64.5303C1748.03 70.234 1730.34 82.5355 1708.45 97.9316L1763.47 86.5996C1778.91 84.3628 1827.67 80.1132 1837.07 76.9072C1816.44 72.5083 1795.11 67.4381 1774.29 64.5303ZM738.889 94.1299C716.782 68.0719 683.612 63.4864 651.786 68.1836L637.445 75.4531L637.524 79.1064C665.9 86.5994 695.888 86.2268 730.602 94.7637L738.889 94.1299Z" fill="#A83500"/>
</svg>
